<mxfile host="app.diagrams.net" agent="Mozilla/5.0 (Windows NT 10.0; Win64; x64) AppleWebKit/537.36 (KHTML, like Gecko) Chrome/114.0.0.0 Safari/537.36 Edg/114.0.1823.79" version="24.7.16">
  <diagram name="Trang-1" id="l03iws6UPXsPSPGAZeIM">
    <mxGraphModel dx="979" dy="1715" grid="1" gridSize="10" guides="1" tooltips="1" connect="1" arrows="1" fold="1" page="1" pageScale="1" pageWidth="827" pageHeight="1169" math="0" shadow="0">
      <root>
        <mxCell id="0" />
        <mxCell id="1" parent="0" />
        <mxCell id="2JOQaI9QGI236U2CI8z8-20" style="edgeStyle=orthogonalEdgeStyle;rounded=0;orthogonalLoop=1;jettySize=auto;html=1;entryX=0.5;entryY=0;entryDx=0;entryDy=0;endArrow=blockThin;endFill=1;strokeWidth=1.5;" parent="1" source="2JOQaI9QGI236U2CI8z8-7" target="2JOQaI9QGI236U2CI8z8-11" edge="1">
          <mxGeometry relative="1" as="geometry" />
        </mxCell>
        <mxCell id="2JOQaI9QGI236U2CI8z8-7" value="&lt;span style=&quot;font-size: 15px;&quot;&gt;Quantized Tflite Model&lt;/span&gt;" style="rounded=1;whiteSpace=wrap;html=1;fillColor=#1ba1e2;strokeColor=#006EAF;fontColor=#ffffff;" parent="1" vertex="1">
          <mxGeometry x="240" y="-200" width="240" height="40" as="geometry" />
        </mxCell>
        <mxCell id="2JOQaI9QGI236U2CI8z8-23" style="edgeStyle=orthogonalEdgeStyle;shape=connector;rounded=0;orthogonalLoop=1;jettySize=auto;html=1;entryX=0.5;entryY=0;entryDx=0;entryDy=0;strokeColor=default;align=center;verticalAlign=middle;fontFamily=Helvetica;fontSize=11;fontColor=default;labelBackgroundColor=default;endArrow=blockThin;endFill=1;strokeWidth=1.5;" parent="1" source="2JOQaI9QGI236U2CI8z8-11" target="2JOQaI9QGI236U2CI8z8-12" edge="1">
          <mxGeometry relative="1" as="geometry" />
        </mxCell>
        <mxCell id="2JOQaI9QGI236U2CI8z8-11" value="&lt;font style=&quot;font-size: 15px;&quot;&gt;TVM Relay Frontend&lt;/font&gt;" style="rounded=1;whiteSpace=wrap;html=1;fillColor=#1ba1e2;strokeColor=#006EAF;fontColor=#ffffff;" parent="1" vertex="1">
          <mxGeometry x="240" y="-140" width="240" height="40" as="geometry" />
        </mxCell>
        <mxCell id="2JOQaI9QGI236U2CI8z8-12" value="&lt;font style=&quot;font-size: 15px;&quot;&gt;Relay Graph Partitioner&lt;/font&gt;&lt;div&gt;&lt;font style=&quot;font-size: 15px;&quot;&gt;and Optimization&lt;/font&gt;&lt;/div&gt;" style="rounded=1;whiteSpace=wrap;html=1;fillColor=#1ba1e2;strokeColor=#006EAF;fontColor=#ffffff;" parent="1" vertex="1">
          <mxGeometry x="240" y="-80" width="240" height="40" as="geometry" />
        </mxCell>
        <mxCell id="2JOQaI9QGI236U2CI8z8-14" value="&lt;font style=&quot;font-size: 15px;&quot;&gt;Ahead-of-time Codegen&lt;/font&gt;" style="rounded=1;whiteSpace=wrap;html=1;fillColor=#1ba1e2;fontColor=#ffffff;strokeColor=#006EAF;" parent="1" vertex="1">
          <mxGeometry x="240" y="-20" width="240" height="40" as="geometry" />
        </mxCell>
        <mxCell id="2JOQaI9QGI236U2CI8z8-15" value="&lt;font style=&quot;font-size: 15px;&quot;&gt;Code ASIP&lt;/font&gt;" style="rounded=1;whiteSpace=wrap;html=1;fillColor=#1ba1e2;strokeColor=#006EAF;fontColor=#ffffff;" parent="1" vertex="1">
          <mxGeometry x="240" y="40" width="240" height="40" as="geometry" />
        </mxCell>
        <mxCell id="2JOQaI9QGI236U2CI8z8-16" value="&lt;span style=&quot;font-size: 15px;&quot;&gt;External Compiler&lt;/span&gt;" style="rounded=1;whiteSpace=wrap;html=1;fillColor=#1ba1e2;strokeColor=#006EAF;fontColor=#ffffff;" parent="1" vertex="1">
          <mxGeometry x="240" y="100" width="240" height="40" as="geometry" />
        </mxCell>
        <mxCell id="2JOQaI9QGI236U2CI8z8-17" value="&lt;font style=&quot;font-size: 15px;&quot;&gt;Compiled AI Model Archive&lt;/font&gt;" style="rounded=1;whiteSpace=wrap;html=1;fillColor=#1ba1e2;strokeColor=#006EAF;fontColor=#ffffff;" parent="1" vertex="1">
          <mxGeometry x="240" y="160" width="240" height="40" as="geometry" />
        </mxCell>
        <mxCell id="2JOQaI9QGI236U2CI8z8-29" style="edgeStyle=orthogonalEdgeStyle;shape=connector;rounded=0;orthogonalLoop=1;jettySize=auto;html=1;entryX=0.5;entryY=0;entryDx=0;entryDy=0;strokeColor=default;align=center;verticalAlign=middle;fontFamily=Helvetica;fontSize=11;fontColor=default;labelBackgroundColor=default;endArrow=blockThin;endFill=1;strokeWidth=1.5;" parent="1" edge="1">
          <mxGeometry relative="1" as="geometry">
            <mxPoint x="359.83" y="20" as="sourcePoint" />
            <mxPoint x="359.83" y="40" as="targetPoint" />
          </mxGeometry>
        </mxCell>
        <mxCell id="TNp84LeQ4NSklary0IVy-6" style="edgeStyle=orthogonalEdgeStyle;shape=connector;rounded=0;orthogonalLoop=1;jettySize=auto;html=1;entryX=0.5;entryY=0;entryDx=0;entryDy=0;strokeColor=default;align=center;verticalAlign=middle;fontFamily=Helvetica;fontSize=11;fontColor=default;labelBackgroundColor=default;endArrow=blockThin;endFill=1;strokeWidth=1.5;" parent="1" edge="1">
          <mxGeometry relative="1" as="geometry">
            <mxPoint x="359.76" y="80" as="sourcePoint" />
            <mxPoint x="359.76" y="100" as="targetPoint" />
          </mxGeometry>
        </mxCell>
        <mxCell id="TNp84LeQ4NSklary0IVy-7" style="edgeStyle=orthogonalEdgeStyle;shape=connector;rounded=0;orthogonalLoop=1;jettySize=auto;html=1;entryX=0.5;entryY=0;entryDx=0;entryDy=0;strokeColor=default;align=center;verticalAlign=middle;fontFamily=Helvetica;fontSize=11;fontColor=default;labelBackgroundColor=default;endArrow=blockThin;endFill=1;strokeWidth=1.5;" parent="1" edge="1">
          <mxGeometry relative="1" as="geometry">
            <mxPoint x="359.76" y="140" as="sourcePoint" />
            <mxPoint x="359.76" y="160" as="targetPoint" />
          </mxGeometry>
        </mxCell>
        <mxCell id="2KzQ0sPdqsrtsNVUutI9-2" style="edgeStyle=orthogonalEdgeStyle;shape=connector;rounded=0;orthogonalLoop=1;jettySize=auto;html=1;entryX=0.5;entryY=0;entryDx=0;entryDy=0;strokeColor=default;align=center;verticalAlign=middle;fontFamily=Helvetica;fontSize=11;fontColor=default;labelBackgroundColor=default;endArrow=blockThin;endFill=1;strokeWidth=1.5;" edge="1" parent="1">
          <mxGeometry relative="1" as="geometry">
            <mxPoint x="359.91999999999996" y="-40" as="sourcePoint" />
            <mxPoint x="359.91999999999996" y="-20" as="targetPoint" />
          </mxGeometry>
        </mxCell>
      </root>
    </mxGraphModel>
  </diagram>
</mxfile>
